<svg width="861" height="273" fill="none" xmlns="http://www.w3.org/2000/svg"><path d="M400.93 118.47c-9.88-2.18-17.33-4.36-22.29-6.8.1-.24.24-.44.34-.71a52.68 52.68 0 003.79-20.26c0-5.3-.9-10.2-2.69-14.7a34.2 34.2 0 00-7.64-11.73 34.61 34.61 0 00-12-7.75 42.84 42.84 0 00-15.79-2.78h-39.88c-4.5-11.48-9.46-25.66-15.06-43.04-.3-.97-1.77-.57-1.54.4 11.26 50.79 8.11 66.12-21.82 55.78-4.39-1.5-7.34 4.53-3.42 7.05 6.5 4.16-8.75 6.74-4.8 7.98 3.43 1.08 6.68 2.72 9.06 5.37 24.13 26.97 9.42 41.76-52.4 74.43-.86.47-.3 1.78.64 1.48 37.31-12.25 53.6-7.42 54.47 9.09l-4.32 20.53h26.01l.14-.57c.13-.04.23-.1.26-.24 11.57-33.24 14.48-60.91 17.87-16.4.07.94 1.4 1.04 1.6.13 5.64-27.23-.63-57.12 57.13 13.28.63.78 1.84-.1 1.3-.93-31.47-48.8-30.2-55.92 19.68-33.15 2.18 1.01 3.82-2.1 1.81-3.38-18.13-11.3-26.48-18.49-25.64-22.75a53 53 0 002.61-2.2c.34-.34.64-.68.97-1.02 5.1-1.9 15.53-2.34 31.08-1.77 3.18.16 3.79-4.63.53-5.34zm-67-39.71c1.47-1.2 2.51-2.99 3.48-5.47 3.92 5.8 7.44 5 17.94-.1-2.45 5.4-3.25 9.4-1 13.45.06.17.2.3.26.47 1 1.64 2.55 3.29 4.63 5.07-19.65 8.99-22.03 7.74-17.87-2.79-8.18 7.62-15.72 6.04-25.18-10.63h17.74zM593.91 51.22L543 139.41c-8.62-32-3.12-45.46 35.8-95.57-34.3 35.32-33.06 31.4 2.81-28.04-37.95 54.3-39.19 52.9-8.82-10.47C535.65 64.2 526.44 54.64 525.97 0c-9.12 62.9-10.1 80.17-23.5 52.53 3.62 48.97-2.98 122.93-27.49 163.32 4.56-6.81 8.55-12.51 12-17.24a14.24 14.24 0 0111.57-5.84h12.03c.47 4.2.8 9.36 1.17 15.33 1.28-5.5 2.42-10.56 3.49-15.33h27.29l33.62-60.14-13.41 60.14h26.68L619.6 51.25H593.9v-.03zm-75.18 125.82c8.38-37.37 10.59-43.87 23.26-35.86l-20.72 35.86h-2.54zM697.59 214.27l-.14.5c0 1.85.07 1.31.14-.5z" fill="#fff"/><path d="M827.21 142.93l-1.88-77.12A867.07 867.07 0 01861 40.11a778.65 778.65 0 01-35.83 20.03L825 53.7h-43.1c4.12-11.84 12.66-28.68 24.7-50.45-67.18 96.17-75.36 180.33-98.28 178.69-1.81-1.58-1.92-6.84-.78-14.93l8.82-41.42c8.21-33.48 20.08-77.46 28.8-120.06-3.22 9.67-6.17 18.42-8.92 26.3a32.65 32.65 0 01-30.8 21.9l-6.51 30.56c-7.98-1.34-17.63-8.28-30.44-20.9 20.08 24.96 15.05 39.02-14.61 47.2h-.27l12.1-56.85H639.5l-29.4 139.13h26.01l12.1-57.22h30.44c10.93 14.15-2.55 58.3-41.87 82.95 41.54-16.67 51.32-43.7 47.3-8.05 13.14-35.42 13.71-4.03 13.5 3.76 12.28-45.25 18.78-21.27 45.5 57.72-5.23-30.82-8.18-54.64-7.31-71.78a7.7 7.7 0 017.64-7.38l10.73-25.12c7.6-1.98 17.86-.94 31.24 3.05a258 258 0 01-11.23-7.75h27.86l.4 29.82h26l-1.13-47.13c8.92-.3 18.77-.63 29.8-1.07-11.3-.54-21.19-1.1-29.87-1.74zm-18.3-26.37c-.24 7.55 2.95 15.77 9.15 18.95-4.32 1.88-10.05 3.53-16.42 5-34.83-4.6-28.16-11.6 7.27-23.95zm12.24-42.9c-13.01 19.39-12.74 23.35-1.25 21.67-13.13 6.5-13.7 7.65-2.44 6.8-5.16 1.82-7.88 7.09-8.45 12.99-45.99 9.6-5.46-11.47-5.46-11.47s-31.28 6.7 7.3-26.17c-.63 5.77 1.71 3.66 10.3-3.82zm-6.88-15.03c-.5 2.85-1 5.37-1.44 7.62-19.7 9.15-30.07 10.56-32.88 4.46 7.04 2.55 14.91-3.7 34.32-12.08zM139.54 78.76h19.65V55.55c11.1-6.4 26.34-13.35 44.61-21.34-64.52 25.4-88.42 20.46-73.54 2.18-27.79 20.23-39.92 24.56-93.22-2.85C74.41 59.77 65.47 67.02 0 80.2c72.8-7 74.18-4.36 7.71 14.66 52.7-10.57 73.04-13.95 86.31-6.47L71.83 192.9h26.22l23.2-109.19c7.9 1.21 20.1 5.24 38.54 11.78-12.3-5.9-18.74-11.34-20.25-16.74z" fill="#fff"/><path d="M285.96 53.74h-26.75c2.72-5.74 5.83-12.21 9.42-19.5-34.56 51.7-48.4 64.95-60.07 42.67 3.66 21 5.43 32.47 4.3 43.2h-1.58l-15.09-66.37h-27.78l21.85 90.23h11.06c-5.7 6.57-15.05 18.81-28.52 37.53 33.95-39.95 35.4-39.08 9.55 10.97 27.22-47.97-1.84 8.28-24.4 61.82 24.03-52.66 64.22-87.65 46.59-34.25 5.9-16.9 10.02-28.78 13.24-37.7l68.18-126.19v-2.41zM498.71 137.06c-25.24-13.42-25.1-19.26-2.1-31.7-27.43 7.1-29.04 6-9.8-8.02-23.7 11.04-26.54 9.13-19.17-12.91-13.27 13.15-23.03 12.1-39.32-7.85h69.42V51.52h-106.8v25.06h10.13l-23.13 116.26h52.1c7.94 0 15.14-1.21 21.65-3.6a48.46 48.46 0 0016.69-10.12 44.68 44.68 0 0010.73-15.7 52.69 52.69 0 003.11-27.9c4.16-.04 9.59.53 16.5 1.54zm-36.26 29.62a88.13 88.13 0 00-9.93-8.56 18.74 18.74 0 01-3.25 3.72c-4.49 3.96-10.12 5.97-16.9 5.97h-24.23l7.61-35.95c.84-.2 1.61-.4 2.38-.6h4.96a171 171 0 00-6.83-10.9c19.74 11.53 28.82 12.17 42.1-.55-7.35 14.97-5.77 18.02 10.79 18.62-16.86 3.22-17.13 4.23-.47 7.98-16.06-.53-13.3 1.38 6.1 16.91-21.02-11.87-23.23-11.8-12.33 3.36z" fill="#fff"/></svg>